<?xml version="1.0" encoding="UTF-8"?>
<svg id="Capa_2" data-name="Capa 2" xmlns="http://www.w3.org/2000/svg" viewBox="0 0 59 52.09">
  <defs>
    <style>
      .cls-1 {
        fill: #fff;
        stroke-width: 0px;
      }
    </style>
  </defs>
  <g id="Capa_1-2" data-name="Capa 1">
    <path class="cls-1" d="m30.02.46c-.69-.62-1.73-.62-2.41,0L.74,24.87s-1.07,1.02-.63,2.16c.38.98,1.21,1.13,1.21,1.13h4.59c.99,0,1.8.8,1.8,1.8v20.34c0,.99.8,1.8,1.8,1.8h10.88c.99,0,1.8-.8,1.8-1.8v-12.34c0-.99.8-1.8,1.8-1.8h9.83c.99,0,1.8.8,1.8,1.8v12.17c0,.99.8,1.8,1.8,1.8h12.42c.99,0,1.8-.8,1.8-1.8v-18.82c0-.99.8-1.79,1.78-1.8l3.61-.03s1.43.23,1.88-.95c.48-1.25-.81-2.68-.81-2.68L30.02.46Z"/>
  </g>
</svg>